PathFileType	4	(X/Y/Z)	 s10c0302.trc
DataRate	CameraRate	NumFrames	NumMarkers	Units	OrigDataRate	OrigDataStartFrame	OrigNumFrames
200	200	4	50	mm	200	501	2000
Frame#	Time	racr			lacr			c7			jug			rlel			rdr			llel			ldr			s2			lic			ric			lasi			rasi			rpsi			lpsi			rgt			lgt			rth1			rth2			rth3			rth4			rlfc			rmfc			rsh1			rsh2			rsh3			rsh4			rlmal			rmmal			rcal			rtoe			rmt5			lth1			lth2			lth4			lth3			llfc			lmfc			llmal			lmmal			lcal			lmt5			lsh1			lsh2			lsh3			lsh4			ltoe			SBIKE			LBIKE			RBIKE			
		X1	Y1	Z1	X2	Y2	Z2	X3	Y3	Z3	X4	Y4	Z4	X5	Y5	Z5	X6	Y6	Z6	X7	Y7	Z7	X8	Y8	Z8	X9	Y9	Z9	X10	Y10	Z10	X11	Y11	Z11	X12	Y12	Z12	X13	Y13	Z13	X14	Y14	Z14	X15	Y15	Z15	X16	Y16	Z16	X17	Y17	Z17	X18	Y18	Z18	X19	Y19	Z19	X20	Y20	Z20	X21	Y21	Z21	X22	Y22	Z22	X23	Y23	Z23	X24	Y24	Z24	X25	Y25	Z25	X26	Y26	Z26	X27	Y27	Z27	X28	Y28	Z28	X29	Y29	Z29	X30	Y30	Z30	X31	Y31	Z31	X32	Y32	Z32	X33	Y33	Z33	X34	Y34	Z34	X35	Y35	Z35	X36	Y36	Z36	X37	Y37	Z37	X38	Y38	Z38	X39	Y39	Z39	X40	Y40	Z40	X41	Y41	Z41	X42	Y42	Z42	X43	Y43	Z43	X44	Y44	Z44	X45	Y45	Z45	X46	Y46	Z46	X47	Y47	Z47	X48	Y48	Z48	X49	Y49	Z49	X50	Y50	Z50	
501	2.5050	616.616913	1303.089601	-40.985662	559.615158	1307.791001	-377.673759	573.762833	1365.112475	-204.241586	559.576385	1219.099183	-201.780049	540.755073	1056.289359	59.186903	646.549974	875.999724	-10.740420	483.390018	1030.152549	-431.521102	661.664099	900.989580	-370.778804	55.930171	1166.910567	-132.397207	193.251525	1207.446026	-294.821906	262.336748	1148.993853	-20.857808	226.083105	1116.601600	-298.655136	257.258440	1066.577655	-43.664580	115.992686	1208.129642	-72.038889	100.059646	1241.820562	-177.208406	140.318309	1035.293673	13.692265	99.748837	1087.514865	-355.411341	155.246297	899.587033	25.790463	188.013312	819.584267	3.435529	174.935903	736.821326	-12.012748	224.123241	826.831467	-2.576083	198.178284	635.098007	-37.354539	182.191653	631.573307	-152.048849	136.865590	536.613772	-8.808893	137.147534	448.955958	-22.991025	94.798942	373.628060	-28.174744	166.678764	444.731595	-47.541287	66.466673	282.586409	-46.540247	89.814587	287.954963	-125.162575	19.630491	299.218634	-97.740392	192.158005	127.892672	-90.442196	109.514515	159.638225	-31.370934	196.863539	995.001882	-387.878205	280.913138	972.507560	-388.014713	299.083400	1003.175927	-379.629766	342.893238	909.122494	-394.528349	436.347020	846.549493	-394.179222	453.038845	834.076391	-271.599681	166.987214	584.357059	-372.129631	179.985994	588.310841	-290.321745	99.503867	565.430478	-327.942493	255.798869	477.868630	-389.419795	341.266635	773.778849	-413.468916	305.116043	694.708776	-398.008850	230.609334	646.024698	-390.424593	328.623578	679.383848	-371.527573	340.074644	488.725379	-328.715041	-204.606081	832.781438	-224.405844	-78.243689	81.847800	-423.599899	-102.690166	80.526523	-24.417766	
502	2.5100	618.895440	1303.888377	-44.263219	561.289072	1308.264701	-380.305126	576.280731	1365.840652	-207.403108	561.314117	1220.207068	-204.703592	542.927537	1057.764948	57.105674	646.779951	875.893731	-10.946462	483.698383	1030.818755	-432.030071	661.674443	901.285684	-370.896678	57.642364	1173.306986	-133.151508	194.371065	1211.163589	-295.474817	264.235340	1152.816729	-22.441760	226.076933	1119.832571	-299.288432	257.956172	1070.778407	-44.660388	119.272479	1214.466463	-73.736040	101.862976	1246.972704	-178.228224	140.539373	1040.762585	13.059888	100.032284	1092.637769	-355.634953	153.661206	904.544339	25.634990	185.154398	823.987114	3.390242	170.781139	741.352655	-11.673188	221.362665	830.590354	-2.812760	192.432946	639.565394	-36.772061	176.200268	635.742483	-152.431829	131.727252	540.968441	-8.515780	133.100108	453.221268	-22.266713	91.633528	377.474455	-27.302695	162.655162	449.301506	-46.784173	63.075236	285.127983	-45.975872	88.868324	291.563126	-124.791103	16.806357	302.135256	-97.509404	188.098497	129.392967	-90.395433	105.560812	161.757984	-31.486125	195.827389	998.906250	-388.068674	279.487558	975.029289	-387.670029	298.096719	1005.460330	-379.305349	340.468589	910.609709	-393.742775	433.596567	846.449170	-392.865638	449.386661	834.731694	-270.125768	168.112848	580.038519	-372.223703	180.766279	584.299468	-290.186073	100.734859	559.551164	-328.145288	259.227183	475.715952	-389.481816	339.386574	772.492197	-412.433629	304.429083	692.840205	-397.667330	230.655350	643.033168	-390.293033	328.141803	677.732334	-371.271498	343.199729	488.861540	-328.762446	-204.437854	833.003541	-224.576763	-78.228939	81.820717	-423.588615	-102.693531	80.549141	-24.409454	
503	2.5150	620.685818	1303.913384	-49.322981	562.703108	1308.965852	-383.074540	578.835211	1366.394933	-210.474508	563.104361	1221.187173	-207.428490	544.959841	1059.044328	55.154186	646.978723	875.745887	-11.147603	484.136860	1031.543049	-432.619599	661.683031	901.543002	-370.972955	59.343624	1179.322169	-133.930416	195.499362	1214.695137	-296.085076	266.134527	1156.562610	-24.257597	226.234515	1123.240245	-300.163795	258.391659	1074.706440	-45.888380	121.678658	1219.904818	-74.623893	103.751352	1252.045814	-179.351894	140.789723	1046.201418	12.479207	100.341403	1097.638866	-355.945153	152.074093	909.300914	25.442641	182.351988	828.457023	3.409975	166.945899	745.843979	-11.449642	218.675980	834.534808	-2.966562	186.921312	643.916945	-36.207507	170.519374	640.062982	-152.730922	126.685859	545.647731	-8.283043	128.813528	457.813167	-21.616107	88.054315	381.559281	-26.674358	158.606518	453.893072	-45.981208	58.599537	287.539536	-45.583914	85.925425	294.938145	-123.992433	12.604841	303.798731	-97.629225	184.674478	131.854868	-90.443218	101.847961	163.851340	-31.665611	194.675377	1002.717600	-388.169603	278.045933	977.751192	-388.015897	297.172915	1008.115359	-379.425905	338.024283	912.214198	-392.948185	430.513710	846.175732	-390.488419	445.846261	835.113397	-268.680182	169.504570	575.918484	-372.399881	181.710983	580.511016	-289.953156	102.047776	554.491774	-328.422571	262.205019	473.689856	-389.751670	337.688962	771.143368	-411.502255	303.979352	690.766659	-397.375189	230.982915	639.824852	-390.193699	327.952423	675.965533	-370.994220	345.927847	488.499995	-328.795432	-204.435248	832.825028	-224.520923	-78.216528	81.814878	-423.556282	-102.661321	80.564030	-24.389937	
504	2.5200	622.869458	1304.617370	-52.328290	564.057298	1309.645793	-385.760680	581.259655	1366.757827	-213.346677	564.927225	1222.261598	-210.306578	546.986179	1060.306496	53.270373	647.141237	875.550025	-11.333316	484.670569	1032.218024	-433.236544	661.647682	901.716132	-371.022430	61.145823	1185.486356	-134.898680	196.754954	1218.062669	-296.780668	267.870410	1160.487382	-25.285879	226.487534	1126.355194	-301.201039	258.158010	1078.574666	-47.738181	123.926769	1225.379640	-75.575117	105.704893	1256.972012	-180.591068	141.016594	1051.709130	11.912921	100.658136	1102.416933	-356.267696	150.705134	913.935180	25.152285	179.818518	832.800064	3.222111	163.445238	750.416629	-11.232799	216.277056	838.440868	-3.327277	181.849958	648.223674	-35.683515	165.342101	644.316083	-153.083083	121.821208	550.007435	-8.055045	124.530199	462.201329	-21.067584	83.999766	385.832108	-26.302173	154.459768	458.432332	-45.135807	53.153480	289.297295	-45.540472	82.147594	297.716150	-123.433559	7.292052	305.034853	-97.638473	181.282639	134.864298	-90.450568	98.349366	165.863621	-31.880183	193.459511	1006.355766	-388.154231	276.475787	980.255562	-387.602110	296.005526	1010.196352	-378.994056	335.538323	913.877362	-392.296586	427.871153	846.288835	-389.060116	442.223182	835.645509	-267.111062	170.369596	572.232830	-372.557726	182.157751	576.876540	-289.706671	103.257167	549.915525	-328.899609	264.637838	471.682550	-389.832099	336.197115	769.547616	-410.671522	303.721865	688.579438	-397.035507	231.454332	636.607581	-390.050611	327.841982	674.043057	-370.613490	348.180295	488.580342	-329.088063	-204.284251	833.034018	-224.630016	-78.192228	81.790741	-423.537227	-102.626780	80.545358	-24.371386	
